:FULLY-SPECIFIED
:FORCE-ALL-JOINTS-BE-3DOF
:DEGREES
2446
root 2.43268 14.7525 -23.3609 937.841 81.4326 -144.899
lfemur -44.5744 15.3842 -14.2098
ltibia 73.4644 0 0
lfoot -19.5616 13.7051 0
ltoes -39.2994 0 0
rfemur -38.7974 -20.6709 18.475
rtibia 80.2341 0 0
rfoot -3.14712 -11.2284 0
rtoes -6.89406 0 0
lowerback 16.087 2.97792 -1.96238
upperback -1.06716 3.73544 1.23557
thorax -10.2638 1.92977 1.53988
lowerneck 3.02042 -12.6167 -13.8825
upperneck -0.532457 -17.3716 13.1514
head 1.94565 -8.78141 5.62379
lclavicle 3.7865e-15 1.0203e-14 0
lhumerus -23.3981 -34.1881 101.554
lradius 97.1655 0 0
lwrist 37.4767 0 0
lhand -20.0585 401.432 0
lfingers 7.12502 0 0
lthumb 6.22242 -649.626 0
rclavicle 3.7865e-15 1.0203e-14 0
rhumerus 49.9779 32.8708 -47.8108
rradius 113.593 0 0
rwrist -32.3046 0 0
rhand -17.5336 -401.232 0
rfingers 7.12502 0 0
rthumb 8.71396 289.335 0
2447
root 2.49834 14.7452 -23.3785 938.3 81.0789 -144.239
lfemur -44.1102 15.5725 -14.1933
ltibia 73.6382 0 0
lfoot -19.8336 13.9194 0
ltoes -39.1092 0 0
rfemur -38.9923 -20.6136 18.0462
rtibia 79.0454 0 0
rfoot -2.57617 -10.7712 0
rtoes -6.37005 0 0
lowerback 16.0904 2.84402 -2.0628
upperback -1.0681 3.54825 1.32632
thorax -10.2573 1.84901 1.7433
lowerneck 2.97627 -12.5188 -13.8436
upperneck -0.345984 -17.2441 12.9885
head 2.00233 -8.71838 5.5662
lclavicle 3.85909e-15 8.86427e-15 0
lhumerus -23.7896 -34.6692 101.683
lradius 97.72 0 0
lwrist 38.5336 0 0
lhand -18.9534 401.46 0
lfingers 7.12502 0 0
lthumb 7.28255 -649.717 0
rclavicle 3.85909e-15 8.86427e-15 0
rhumerus 47.9314 31.6117 -48.8551
rradius 113.275 0 0
rwrist -29.7271 0 0
rhand -18.2531 -401.45 0
rfingers 7.12502 0 0
rthumb 8.01935 289.121 0
2448
root 2.56401 14.7379 -23.3962 938.649 80.7612 -143.669
lfemur -43.5913 15.7909 -14.1687
ltibia 73.812 0 0
lfoot -20.1508 14.1478 0
ltoes -38.9233 0 0
rfemur -39.199 -20.5771 17.5703
rtibia 77.7395 0 0
rfoot -1.92866 -10.2495 0
rtoes -5.79343 0 0
lowerback 16.0922 2.69782 -2.17821
upperback -1.06884 3.34283 1.4267
thorax -10.2488 1.76074 1.97042
lowerneck 2.93582 -12.4346 -13.8205
upperneck -0.149225 -17.1364 12.8337
head 2.06248 -8.66513 5.51195
lclavicle 3.97152e-15 7.39538e-15 0
lhumerus -24.321 -35.1882 101.889
lradius 98.3155 0 0
lwrist 39.7748 0 0
lhand -17.715 401.49 0
lfingers 7.12502 0 0
lthumb 8.47054 -649.819 0
rclavicle 3.97152e-15 7.39538e-15 0
rhumerus 45.7276 30.1939 -49.9823
rradius 112.945 0 0
rwrist -26.9 0 0
rhand -19.0654 -401.69 0
rfingers 7.12502 0 0
rthumb 7.2352 288.883 0
2449
root 2.62967 14.7306 -23.4139 938.87 80.4852 -143.204
lfemur -43.0143 16.0417 -14.1352
ltibia 73.9847 0 0
lfoot -20.5168 14.3905 0
ltoes -38.7434 0 0
rfemur -39.4177 -20.564 17.0444
rtibia 76.3102 0 0
rfoot -1.19939 -9.65877 0
rtoes -5.16137 0 0
lowerback 16.0922 2.53872 -2.3097
upperback -1.06933 3.11825 1.53724
thorax -10.238 1.66458 2.22269
lowerneck 2.89974 -12.3662 -13.8154
upperneck 0.0579075 -17.0516 12.6888
head 2.12618 -8.62309 5.46173
lclavicle 4.12776e-15 5.78951e-15 0
lhumerus -25.0055 -35.7465 102.178
lradius 98.9533 0 0
lwrist 41.2145 0 0
lhand -16.3351 401.522 0
lfingers 7.12502 0 0
lthumb 9.79448 -649.933 0
rclavicle 4.12776e-15 5.78951e-15 0
rhumerus 43.3606 28.6073 -51.1957
rradius 112.601 0 0
rwrist -23.8105 0 0
rhand -19.9767 -401.956 0
rfingers 7.12502 0 0
rthumb 6.35558 288.62 0
2450
root 2.69534 14.7234 -23.4316 938.951 80.257 -142.856
lfemur -42.3759 16.3272 -14.0921
ltibia 74.1554 0 0
lfoot -20.9349 14.648 0
ltoes -38.571 0 0
rfemur -39.6487 -20.5768 16.4658
rtibia 74.7513 0 0
rfoot -0.383148 -8.99439 0
rtoes -4.47101 0 0
lowerback 16.09 2.36613 -2.45834
upperback -1.06955 2.87354 1.6585
thorax -10.2248 1.56017 2.50159
lowerneck 2.86866 -12.3155 -13.8301
upperneck 0.275501 -16.9925 12.5555
head 2.1935 -8.59367 5.41623
lclavicle 4.33175e-15 4.03989e-15 0
lhumerus -25.856 -36.3456 102.56
lradius 99.6349 0 0
lwrist 42.8671 0 0
lhand -14.8051 401.556 0
lfingers 7.12502 0 0
lthumb 11.2624 -650.058 0
rclavicle 4.33175e-15 4.03989e-15 0
rhumerus 40.8246 26.8414 -52.4986
rradius 112.245 0 0
rwrist -20.4457 0 0
rhand -20.9931 -402.246 0
rfingers 7.12502 0 0
rthumb 5.37457 288.329 0
2451
root 2.76101 14.7161 -23.4493 938.876 80.0824 -142.64
lfemur -41.6727 16.6495 -14.0385
ltibia 74.323 0 0
lfoot -21.4087 14.9206 0
ltoes -38.4075 0 0
rfemur -39.8922 -20.6181 15.8318
rtibia 73.0567 0 0
rfoot 0.525251 -8.25189 0
rtoes -3.71953 0 0
lowerback 16.0856 2.17943 -2.62521
upperback -1.06948 2.60776 1.79102
thorax -10.209 1.44714 2.80858
lowerneck 2.84324 -12.2847 -13.8666
upperneck 0.503645 -16.962 12.4357
head 2.26448 -8.5783 5.37613
lclavicle 4.58745e-15 2.1397e-15 0
lhumerus -26.8857 -36.9869 103.042
lradius 100.362 0 0
lwrist 44.7467 0 0
lhand -13.1165 401.593 0
lfingers 7.12502 0 0
lthumb 12.8825 -650.196 0
rclavicle 4.58745e-15 2.1397e-15 0
rhumerus 38.1138 24.8859 -53.8942
rradius 111.876 0 0
rwrist -16.7926 0 0
rhand -22.1207 -402.564 0
rfingers 7.12502 0 0
rthumb 4.28623 288.011 0
2452
root 2.82667 14.7088 -23.467 938.631 79.9673 -142.569
lfemur -40.9011 17.011 -13.9736
ltibia 74.4867 0 0
lfoot -21.9414 15.2086 0
ltoes -38.2546 0 0
rfemur -40.1483 -20.6904 15.1395
rtibia 71.2201 0 0
rfoot 1.53101 -7.42676 0
rtoes -2.90408 0 0
lowerback 16.0786 1.97803 -2.8114
upperback -1.06908 2.31996 1.93536
thorax -10.1903 1.3251 3.1451
lowerneck 2.82414 -12.2759 -13.9269
upperneck 0.742425 -16.9631 12.331
head 2.33921 -8.57839 5.34213
lclavicle 4.89883e-15 8.21677e-17 0
lhumerus -28.1078 -37.6719 103.63
lradius 101.135 0 0
lwrist 46.8678 0 0
lhand -11.2611 401.632 0
lfingers 7.12502 0 0
lthumb 14.6628 -650.348 0
rclavicle 4.89883e-15 8.21677e-17 0
rhumerus 35.2224 22.7305 -55.3858
rradius 111.496 0 0
rwrist -12.8382 0 0
rhand -23.3657 -402.911 0
rfingers 7.12502 0 0
rthumb 3.08463 287.663 0
2453
root 2.89234 14.7015 -23.4846 938.2 79.9175 -142.656
lfemur -40.058 17.4138 -13.8967
ltibia 74.6454 0 0
lfoot -22.5366 15.5124 0
ltoes -38.1138 0 0
rfemur -40.4173 -20.7965 14.3863
rtibia 69.2353 0 0
rfoot 2.63933 -6.51446 0
rtoes -2.02183 0 0
lowerback 16.069 1.76132 -3.01799
upperback -1.06832 2.00918 2.09204
thorax -10.1686 1.19369 3.51263
lowerneck 2.812 -12.291 -14.0129
upperneck 0.991931 -16.9984 12.2434
head 2.41775 -8.59537 5.3149
lclavicle 5.26982e-15 -2.13951e-15 0
lhumerus -29.5353 -38.4021 104.334
lradius 101.956 0 0
lwrist 49.2445 0 0
lhand -9.23033 401.674 0
lfingers 7.12502 0 0
lthumb 16.6114 -650.514 0
rclavicle 5.26982e-15 -2.13951e-15 0
rhumerus 32.1444 20.3648 -56.9766
rradius 111.104 0 0
rwrist -8.56959 0 0
rhand -24.7343 -403.287 0
rfingers 7.12502 0 0
rthumb 1.76385 287.283 0
2454
root 2.95801 14.6942 -23.5023 937.569 79.9391 -142.915
lfemur -39.1398 17.8603 -13.8069
ltibia 74.7981 0 0
lfoot -23.1978 15.8323 0
ltoes -37.9866 0 0
rfemur -40.6994 -20.9388 13.5692
rtibia 67.0961 0 0
rfoot 3.85541 -5.51048 0
rtoes -1.06993 0 0
lowerback 16.0565 1.52872 -3.24606
upperback -1.06719 1.67447 2.26164
thorax -10.1437 1.05254 3.91263
lowerneck 2.80747 -12.332 -14.1267
upperneck 1.25225 -17.0711 12.1746
head 2.50016 -8.63066 5.29513
lclavicle 5.70438e-15 -4.53212e-15 0
lhumerus -31.1814 -39.179 105.16
lradius 102.827 0 0
lwrist 51.8912 0 0
lhand -7.01579 401.719 0
lfingers 7.12502 0 0
lthumb 18.7364 -650.695 0
rclavicle 5.70438e-15 -4.53212e-15 0
rhumerus 28.8742 17.7786 -58.6699
rradius 110.7 0 0
rwrist -3.97383 0 0
rhand -26.2325 -403.693 0
rfingers 7.12502 0 0
rthumb 0.317955 286.872 0
2455
root 3.02367 14.687 -23.52 936.723 80.0378 -143.361
lfemur -38.1431 18.3527 -13.7035
ltibia 74.9439 0 0
lfoot -23.9282 16.1687 0
ltoes -37.8746 0 0
rfemur -40.9948 -21.12 12.6856
rtibia 64.7963 0 0
rfoot 5.18444 -4.41031 0
rtoes -0.0455441 0 0
lowerback 16.0409 1.27961 -3.49669
upperback -1.06564 1.31489 2.44469
thorax -10.1154 0.901268 4.34655
lowerneck 2.8112 -12.4011 -14.2701
upperneck 1.52347 -17.1839 12.1264
head 2.58651 -8.68568 5.28351
lclavicle 6.20648e-15 -7.10245e-15 0
lhumerus -33.0593 -40.0039 106.117
lradius 103.748 0 0
lwrist 54.8221 0 0
lhand -4.60906 401.766 0
lfingers 7.12502 0 0
lthumb 21.0458 -650.891 0
rclavicle 6.20648e-15 -7.10245e-15 0
rhumerus 25.4058 14.9614 -60.469
rradius 110.286 0 0
rwrist 0.962032 0 0
rhand -27.8666 -404.133 0
rfingers 7.12502 0 0
rthumb -1.25898 286.426 0
2456
root 3.08934 14.6797 -23.5377 935.648 80.2196 -144.005
lfemur -37.0647 18.8932 -13.5856
ltibia 75.0818 0 0
lfoot -24.7315 16.522 0
ltoes -37.7792 0 0
rfemur -41.3036 -21.3427 11.7326
rtibia 62.3298 0 0
rfoot 6.63162 -3.20943 0
rtoes 1.05417 0 0
lowerback 16.0219 1.0134 -3.77096
upperback -1.06365 0.92947 2.64174
thorax -10.0835 0.73951 4.81585
lowerneck 2.82385 -12.5003 -14.4451
upperneck 1.80568 -17.3398 12.1005
head 2.67686 -8.76184 5.28073
lclavicle 6.78006e-15 -9.85731e-15 0
lhumerus -35.1819 -40.8784 107.211
lradius 104.721 0 0
lwrist 58.0515 0 0
lhand -2.00172 401.817 0
lfingers 7.12502 0 0
lthumb 23.5478 -651.104 0
rclavicle 6.78006e-15 -9.85731e-15 0
rhumerus 21.7334 11.9029 -62.3771
rradius 109.861 0 0
rwrist 6.25095 0 0
rhand -29.6427 -404.606 0
rfingers 7.12502 0 0
rthumb -2.9729 285.945 0
2457
root 3.155 14.6724 -23.5554 934.328 80.4903 -144.863
lfemur -35.901 19.484 -13.4526
ltibia 75.2108 0 0
lfoot -25.6109 16.8923 0
ltoes -37.7021 0 0
rfemur -41.6263 -21.6094 10.7075
rtibia 59.6902 0 0
rfoot 8.20216 -1.90331 0
rtoes 2.23204 0 0
lowerback 15.9995 0.729487 -4.06995
upperback -1.0612 0.517272 2.85333
thorax -10.0479 0.566892 5.32201
lowerneck 2.84607 -12.6317 -14.6536
upperneck 2.09896 -17.5416 12.0989
head 2.77128 -8.86058 5.28746
lclavicle 7.42907e-15 -1.28035e-14 0
lhumerus -37.5625 -41.8039 108.451
lradius 105.748 0 0
lwrist 61.5936 0 0
lhand 0.814655 401.87 0
lfingers 7.12502 0 0
lthumb 26.2504 -651.333 0
rclavicle 7.42907e-15 -1.28035e-14 0
rhumerus 17.8512 8.59277 -64.3975
rradius 109.426 0 0
rwrist 11.9059 0 0
rhand -31.5669 -405.114 0
rfingers 7.12502 0 0
rthumb -4.82971 285.426 0
2458
root 3.22067 14.6651 -23.5731 932.75 80.856 -145.947
lfemur -34.6486 20.1275 -13.3035
ltibia 75.3299 0 0
lfoot -26.5701 17.2802 0
ltoes -37.6448 0 0
rfemur -41.9628 -21.9227 9.60756
rtibia 56.8715 0 0
rfoot 9.90125 -0.487431 0
rtoes 3.49091 0 0
lowerback 15.9734 0.427269 -4.39474
upperback -1.05824 0.0773402 3.08002
thorax -10.0083 0.38304 5.86647
lowerneck 2.8785 -12.7972 -14.8977
upperneck 2.40341 -17.7923 12.1231
head 2.86983 -8.9833 5.3044
lclavicle 8.15748e-15 -1.59477e-14 0
lhumerus -40.2141 -42.7819 109.845
lradius 106.83 0 0
lwrist 65.4628 0 0
lhand 3.84849 401.926 0
lfingers 7.12502 0 0
lthumb 29.1618 -651.58 0
rclavicle 8.15748e-15 -1.59477e-14 0
rhumerus 13.7535 5.02071 -66.5334
rradius 108.98 0 0
rwrist 17.9397 0 0
rhand -33.6454 -405.658 0
rfingers 7.12502 0 0
rthumb -6.83536 284.87 0
2459
root 3.28634 14.6579 -23.5907 930.897 81.3224 -147.271
lfemur -33.3043 20.8259 -13.1376
ltibia 75.4383 0 0
lfoot -27.6123 17.686 0
ltoes -37.6088 0 0
rfemur -42.3135 -22.2852 8.42997
rtibia 53.8674 0 0
rfoot 11.7341 1.04272 0
rtoes 4.83363 0 0
lowerback 15.9434 0.106146 -4.74642
upperback -1.05476 -0.391276 3.32236
thorax -9.96449 0.187583 6.4507
lowerneck 2.9218 -12.9989 -15.1793
upperneck 2.71912 -18.0946 12.1752
head 2.97258 -9.13143 5.33224
lclavicle 8.96924e-15 -1.92969e-14 0
lhumerus -43.1499 -43.8139 111.399
lradius 107.968 0 0
lwrist 69.6733 0 0
lhand 7.10821 401.985 0
lfingers 7.12502 0 0
lthumb 32.2899 -651.845 0
rclavicle 8.96924e-15 -1.92969e-14 0
rhumerus 9.43426 1.17636 -68.7881
rradius 108.525 0 0
rwrist 24.3655 0 0
rhand -35.8844 -406.239 0
rfingers 7.12502 0 0
rthumb -8.99577 284.274 0
